<?xml version="1.0" standalone="no"?>
<!DOCTYPE svg PUBLIC "-//W3C//DTD SVG 20010904//EN"
 "http://www.w3.org/TR/2001/REC-SVG-20010904/DTD/svg10.dtd">
<svg version="1.0" xmlns="http://www.w3.org/2000/svg"
 width="785.000000pt" height="912.000000pt" viewBox="0 0 785.000000 912.000000"
 preserveAspectRatio="xMidYMid meet">

<g transform="translate(0.000000,912.000000) scale(0.100000,-0.100000)"
fill="#000000" stroke="none">
<path d="M3802 9096 c-202 -39 -357 -112 -467 -221 -200 -197 -385 -509 -743
-1255 l-31 -65 0 102 c-1 102 -1 103 -27 109 -37 9 -233 -2 -270 -16 -24 -8
-33 -19 -38 -42 -9 -46 -7 -149 5 -297 6 -73 9 -134 7 -137 -3 -2 -39 -7 -82
-10 -62 -6 -79 -11 -87 -27 -13 -24 1 -242 36 -562 l24 -220 -149 -460 c-199
-617 -243 -754 -275 -862 l-28 -93 22 -117 c95 -509 398 -1458 870 -2722 l31
-84 -72 7 c-82 8 -395 52 -448 64 -46 10 -53 30 -154 435 l-82 329 -51 17
c-69 23 -166 103 -354 291 l-156 156 -5 785 c-3 608 -7 789 -17 807 -19 36
-87 61 -185 68 l-87 7 7 131 c6 119 5 133 -11 146 -22 19 -185 25 -300 12 -50
-6 -82 -5 -86 0 -4 6 -9 46 -13 90 -11 128 -49 178 -140 186 -52 4 -56 3 -99
-37 -107 -99 -202 -380 -251 -741 -46 -342 -66 -678 -73 -1235 -10 -835 30
-1448 119 -1820 115 -484 320 -750 742 -962 316 -159 586 -231 959 -255 246
-17 529 8 580 51 24 20 -7 314 -50 470 l-6 24 79 -6 c43 -4 147 -10 229 -13
83 -4 156 -10 164 -14 8 -4 49 -108 91 -231 64 -186 81 -226 101 -236 15 -8
66 -13 131 -13 l107 0 6 -47 c14 -105 67 -412 83 -482 17 -72 19 -75 52 -84
44 -12 645 -2 790 13 163 16 157 14 169 71 15 70 39 266 46 385 l7 101 96 6
c54 2 104 8 113 11 21 9 60 95 115 251 l42 120 221 3 c173 2 221 0 221 -10 0
-7 -7 -72 -16 -145 -20 -157 -17 -166 68 -206 173 -80 463 -88 857 -21 471 79
750 200 988 428 156 148 264 300 376 522 246 491 340 974 341 1759 1 490 -34
839 -114 1149 -73 285 -235 577 -393 708 -111 92 -232 133 -269 91 -22 -25
-52 -89 -73 -153 -10 -30 -20 -58 -24 -61 -3 -4 -40 -1 -81 7 -79 15 -381 21
-401 8 -9 -5 -10 -40 -5 -128 4 -67 9 -133 12 -147 6 -25 3 -27 -38 -34 -23
-4 -67 -16 -95 -27 -41 -15 -54 -25 -59 -45 -13 -52 8 -448 57 -1064 l13 -156
-28 -47 c-69 -117 -282 -340 -568 -593 -44 -39 -84 -143 -138 -357 l-37 -149
-196 -68 c-109 -38 -197 -63 -197 -58 0 6 31 109 69 228 101 315 170 540 261
856 45 154 139 471 210 705 292 963 345 1176 321 1290 -20 93 -91 259 -233
542 l-139 278 25 227 c42 375 86 832 86 883 0 47 -1 49 -42 69 -24 11 -83 31
-133 44 l-90 24 -3 206 c-2 201 -3 207 -25 221 -28 19 -122 34 -259 42 l-107
7 -11 -27 c-5 -15 -10 -51 -11 -79 0 -29 -4 -71 -7 -95 l-7 -42 -29 72 c-155
385 -444 1030 -518 1157 -55 94 -160 192 -258 239 -47 23 -112 49 -145 57 -84
23 -273 28 -363 11z m237 -217 c166 -38 312 -186 464 -469 92 -171 282 -614
469 -1088 427 -1088 818 -2183 818 -2292 0 -76 -181 -693 -496 -1690 -285
-899 -674 -2086 -769 -2342 l-47 -128 -38 0 c-22 0 -41 4 -44 9 -3 5 50 286
119 624 200 989 285 1450 285 1547 0 58 -55 272 -185 725 -186 648 -404 1335
-465 1472 -23 50 -36 65 -69 83 -113 57 -474 66 -533 13 -34 -30 -111 -414
-248 -1228 -84 -500 -159 -989 -185 -1197 l-15 -127 120 -493 c195 -795 284
-1194 292 -1298 3 -43 2 -45 -32 -57 -47 -16 -145 -16 -158 0 -57 69 -839
2519 -1141 3572 -96 336 -121 442 -121 509 0 264 291 1254 603 2048 78 198
267 626 381 863 277 574 532 878 789 941 64 15 148 17 206 3z m-3189 -3635
c13 -13 24 -165 13 -181 -11 -16 -99 -33 -166 -33 l-50 0 7 95 c7 107 11 122
34 129 29 8 151 1 162 -10z m6034 -350 c18 -7 21 -55 6 -85 -13 -24 -45 -24
-144 -3 -58 13 -76 22 -84 39 -12 26 -5 41 23 48 29 7 181 8 199 1z m-5929
-25 c38 -6 73 -13 76 -17 8 -9 39 -567 46 -827 6 -241 13 -236 -85 -59 -85
155 -174 358 -231 532 -59 175 -105 362 -94 373 18 17 156 16 288 -2z m5855
-337 c0 -35 -185 -555 -258 -726 l-30 -70 -7 105 c-8 120 -3 664 6 674 18 17
289 33 289 17z m-2590 -3964 c-1 -88 -19 -297 -31 -341 -6 -25 -17 -48 -24
-51 -32 -12 -428 -26 -530 -19 l-110 8 -22 100 c-33 145 -55 307 -45 317 12
12 268 25 540 27 l222 1 0 -42z"/>
<path d="M3735 8624 c-28 -7 -58 -23 -69 -36 -35 -43 -126 -207 -198 -353 -79
-162 -79 -165 0 -165 29 0 48 6 63 21 28 28 272 530 262 539 -4 4 -30 1 -58
-6z"/>
<path d="M3785 7804 c-209 -29 -392 -81 -485 -136 -65 -39 -86 -75 -181 -318
-174 -440 -343 -960 -320 -983 5 -5 112 11 273 42 470 92 787 123 1044 102
234 -18 341 -37 777 -137 81 -18 121 -24 129 -16 23 23 -50 288 -227 817 -168
500 -153 465 -211 497 -72 41 -166 76 -279 104 -87 23 -125 26 -295 29 -107 2
-208 1 -225 -1z m415 -170 c85 -16 228 -63 292 -95 44 -22 46 -28 124 -254
104 -301 200 -663 181 -681 -4 -4 -73 9 -154 29 -362 87 -732 118 -1010 82
-135 -17 -351 -69 -500 -119 -57 -19 -105 -30 -108 -25 -15 23 223 744 305
925 l27 61 109 31 c60 17 136 36 169 43 158 31 412 32 565 3z"/>
<path d="M2605 6019 c-132 -365 -258 -758 -253 -792 4 -27 37 -34 80 -16 24
10 38 28 61 78 52 114 267 715 258 724 -4 4 -37 10 -74 14 -52 4 -68 3 -72 -8z"/>
<path d="M5063 5510 c-24 -21 -43 -44 -43 -49 0 -11 94 -84 275 -212 152 -108
140 -103 157 -76 34 50 31 62 -23 121 -75 82 -292 257 -319 256 -3 0 -24 -18
-47 -40z"/>
<path d="M4792 5190 c-29 -26 -52 -54 -51 -62 2 -39 609 -478 644 -464 10 3
15 19 15 45 0 36 -7 45 -119 154 -124 119 -347 314 -404 353 l-33 22 -52 -48z"/>
<path d="M4681 4864 c-38 -49 -30 -64 102 -183 157 -142 268 -230 418 -331
105 -72 123 -80 135 -68 25 24 4 55 -127 189 -168 170 -463 419 -497 419 -6 0
-20 -12 -31 -26z"/>
<path d="M2427 4743 c-13 -13 -7 -56 34 -216 53 -214 127 -486 139 -514 11
-27 39 -29 82 -7 l31 16 -7 66 c-7 73 -89 417 -131 549 -21 69 -31 86 -55 98
-30 15 -82 20 -93 8z"/>
<path d="M4681 4425 c-17 -20 -31 -43 -31 -53 0 -18 166 -158 330 -279 103
-76 276 -193 285 -193 3 0 5 15 5 33 0 30 -15 49 -137 168 -121 118 -268 246
-384 332 l-37 27 -31 -35z"/>
<path d="M4736 3960 c-14 -22 -26 -43 -26 -48 0 -36 420 -366 441 -345 5 5 11
29 14 53 l6 45 -88 76 c-85 75 -211 177 -284 232 l-36 27 -27 -40z"/>
</g>
</svg>
